<?xml version="1.0" encoding="utf-8"?>
<!-- Generator: Adobe Illustrator 23.0.2, SVG Export Plug-In . SVG Version: 6.00 Build 0)  -->
<svg version="1.1" id="Слой_1" xmlns="http://www.w3.org/2000/svg" xmlns:xlink="http://www.w3.org/1999/xlink" x="0px" y="0px"
	 viewBox="0 0 117.9 54.6" style="enable-background:new 0 0 117.9 54.6;" xml:space="preserve">
<style type="text/css">
	.st0{fill:#364048;}
	.st1{fill:#D9D9D9;}
</style>
<g>
	<path class="st0" d="M14.1,35.6L3,22.9v12.7H0V0h3v22l11-11.4h4L6.3,22.4l11.7,13.2H14.1z"/>
	<path class="st0" d="M36.9,35.6v-1.8c-1.7,1.1-4.6,2.4-8.3,2.4c-4.9,0-7.5-2.2-7.5-7.2v-0.7c0-6.3,4.1-7.6,11.4-7.6h4.2v-2.1
		c0-4.9-1.1-6-6.6-6c-2.4,0-4.5,0.2-7.3,0.5v-2.2c2.3-0.4,4.3-0.9,7.5-0.9c8,0,9.4,2.7,9.4,8.6v17H36.9z M36.8,23h-4.2
		c-6,0-8.4,0.8-8.4,5.3v0.9c0,3.4,1.9,4.6,5.1,4.6s6.2-1.4,7.6-2.3V23z"/>
	<path class="st0" d="M55.7,36.2c-1.5,0-3.7-0.2-5.9-0.6v9.6h-2.9V10.6h2.9v1.8c2.1-1.4,5-2.4,7.8-2.4c6,0,8.9,3.4,8.9,12v1.8
		C66.3,33.2,62.2,36.2,55.7,36.2z M63.3,22c0-7-1.8-9.3-6.3-9.3c-2.4,0-4.6,0.8-7.3,2.1V33c2.4,0.4,4.4,0.6,5.9,0.6
		c4.9,0,7.6-2,7.6-9.8V22z"/>
	<path class="st0" d="M81.5,36.2c-1.5,0-3.7-0.2-5.9-0.6v9.6h-2.9V10.6h2.9v1.8c2.1-1.4,5-2.4,7.8-2.4c6,0,8.9,3.4,8.9,12v1.8
		C92.1,33.2,88,36.2,81.5,36.2z M89.1,22c0-7-1.8-9.3-6.3-9.3c-2.4,0-4.6,0.8-7.3,2.1V33c2.4,0.4,4.4,0.6,5.9,0.6
		c4.9,0,7.6-2,7.6-9.8V22z"/>
	<path class="st0" d="M100.2,24.1v0.6c0,5.7,1.6,8.9,8.4,8.9c2.8,0,6.3-0.3,8.6-0.7v2.4c-1.8,0.4-4.9,0.9-8.6,0.9
		c-8.5,0-11.3-3.8-11.3-12.1v-1.7c0-7.8,3.2-12.3,10.4-12.3c7.2,0,10.4,4.4,10.4,12.7v1.5H100.2z M114.8,21.2c0-4.5-1.2-8.6-7.3-8.6
		c-6.1,0-7.3,4.3-7.3,8.6l0,0.4h14.6V21.2z"/>
</g>
<g>
	<path class="st1" d="M37.4,53h12.6l0.8,0.6H37.4l0,1h-0.5v-1h-0.7c-0.9,0-1.5-0.1-1.5-1.2c0-0.3,0-0.7,0.1-0.9h0.4
		c0,0.2,0,0.5,0,0.8c0,0.6,0.3,0.7,1,0.7h0.7v-1.5h0.5V53z"/>
	<path class="st1" d="M41.9,48.7c0,1.4-0.8,2-2.3,2h-0.5c-1.5,0-2.3-0.6-2.3-2s0.8-2,2.3-2h0.5C41.1,46.6,41.9,47.3,41.9,48.7z
		 M39.1,47.2c-1.3,0-1.8,0.4-1.8,1.4c0,1,0.5,1.4,1.8,1.4h0.5c1.3,0,1.8-0.4,1.8-1.4s-0.5-1.4-1.8-1.4H39.1z"/>
	<path class="st1" d="M37.8,44.8h4v0.6h-4.9v-0.6h0.4c-0.4-0.6-0.5-1.3-0.5-1.8h0.5C37.3,43.5,37.5,44.3,37.8,44.8z"/>
</g>
<g>
	<path class="st1" d="M50.9,53.6c-1.2,0-1.7-0.6-1.7-2v-0.5c0-1.4,0.6-2,1.7-2c0.5,0,0.9,0.1,1.2,0.1v0.4c-0.5-0.1-0.9-0.1-1.1-0.1
		c-0.8,0-1.3,0.3-1.3,1.6v0.5c0,1.3,0.4,1.6,1.3,1.6c0.2,0,0.6,0,1.1-0.1v0.4C51.8,53.5,51.4,53.6,50.9,53.6z"/>
	<path class="st1" d="M53.6,49.9v3.6h-0.5v-4.3h0.5v0.4c0.5-0.4,1.1-0.5,1.6-0.5v0.5C54.7,49.5,54.1,49.6,53.6,49.9z"/>
	<path class="st1" d="M56.3,51.5L56.3,51.5c0,1.1,0.3,1.6,1.5,1.6c0.5,0,1.1-0.1,1.5-0.1v0.4c-0.3,0.1-0.9,0.2-1.5,0.2
		c-1.5,0-2-0.7-2-2.1v-0.3c0-1.4,0.6-2.1,1.8-2.1c1.3,0,1.8,0.8,1.8,2.2v0.3H56.3z M58.8,51c0-0.8-0.2-1.5-1.3-1.5
		c-1.1,0-1.3,0.7-1.3,1.5l0,0.1L58.8,51L58.8,51z"/>
	<path class="st1" d="M63,53.5v-0.3c-0.3,0.2-0.8,0.4-1.4,0.4c-0.8,0-1.3-0.4-1.3-1.2v-0.1c0-1.1,0.7-1.3,2-1.3h0.7v-0.4
		c0-0.8-0.2-1-1.2-1c-0.4,0-0.8,0-1.3,0.1v-0.4c0.4-0.1,0.8-0.2,1.3-0.2c1.4,0,1.6,0.5,1.6,1.5v3H63z M62.9,51.3h-0.7
		c-1,0-1.5,0.1-1.5,0.9v0.2c0,0.6,0.3,0.8,0.9,0.8c0.5,0,1.1-0.2,1.3-0.4V51.3z"/>
	<path class="st1" d="M66.2,53.6c-0.7,0-1-0.3-1-1.1v-2.9l-0.9,0v-0.4h0.9V48h0.5v1.2h1.2v0.4h-1.2v2.9c0,0.6,0.1,0.7,0.5,0.7
		c0.2,0,0.5,0,0.7,0v0.4C66.8,53.5,66.4,53.6,66.2,53.6z"/>
	<path class="st1" d="M67.8,48.3v-1h0.5v1H67.8z M67.8,53.5v-4.3h0.5v4.3H67.8z"/>
	<path class="st1" d="M71.4,53.5h-0.7l-1.5-4.3h0.6l1,2.9c0.1,0.4,0.2,0.7,0.3,1h0c0.1-0.3,0.2-0.7,0.3-1l1-2.9h0.6L71.4,53.5z"/>
	<path class="st1" d="M74.1,51.5L74.1,51.5c0,1.1,0.3,1.6,1.5,1.6c0.5,0,1.1-0.1,1.5-0.1v0.4c-0.3,0.1-0.9,0.2-1.5,0.2
		c-1.5,0-2-0.7-2-2.1v-0.3c0-1.4,0.6-2.1,1.8-2.1c1.3,0,1.8,0.8,1.8,2.2v0.3H74.1z M76.6,51c0-0.8-0.2-1.5-1.3-1.5
		c-1.1,0-1.3,0.7-1.3,1.5l0,0.1L76.6,51L76.6,51z"/>
	<path class="st1" d="M79.4,53.6c-0.6,0-1.2-0.1-1.4-0.2V53c0.3,0,0.9,0.1,1.4,0.1c0.8,0,1.1-0.3,1.1-0.7c0-0.4-0.2-0.6-1-0.9
		l-0.3-0.1C78.4,51,78,50.7,78,50.1c0-0.7,0.5-1.1,1.6-1.1c0.5,0,1.1,0.1,1.3,0.2v0.4c-0.4-0.1-0.9-0.1-1.2-0.1c-0.7,0-1,0.1-1,0.6
		c0,0.4,0.2,0.6,0.9,0.9l0.3,0.1c1,0.4,1.3,0.7,1.3,1.3C81,53,80.6,53.6,79.4,53.6z"/>
</g>
</svg>
