<svg xmlns="http://www.w3.org/2000/svg" viewBox="0 0 136.33 136.33"><defs><style>.cls-1{fill:#20b4b2;}.cls-2{fill:none;stroke:#20b4b2;stroke-miterlimit:10;stroke-width:2px;}</style></defs><title>Ресурс 2</title><g id="Слой_2" data-name="Слой 2"><g id="Слой_1-2" data-name="Слой 1"><path class="cls-1" d="M102.34,34a18.78,18.78,0,0,0-26.52,0L62.55,47.25a2.88,2.88,0,0,0,4.08,4.08L79.9,38.07A13,13,0,0,1,98.26,56.44L80.92,73.78a13,13,0,0,1-18.37,0,2.88,2.88,0,1,0-4.08,4.08,18.77,18.77,0,0,0,26.53,0l17.34-17.34a18.79,18.79,0,0,0,0-26.53Z"/><path class="cls-1" d="M67.66,87,56.43,98.27A13,13,0,1,1,38.07,79.9L54.39,63.58a13,13,0,0,1,18.37,0,2.88,2.88,0,1,0,4.08-4.08,18.78,18.78,0,0,0-26.53,0L34,75.82a18.76,18.76,0,0,0,26.52,26.53L71.73,91.12A2.88,2.88,0,0,0,67.66,87Z"/><path class="cls-1" d="M77.57,92a2.9,2.9,0,0,0-2.89,2.89v8.66a2.89,2.89,0,0,0,5.77,0V94.89A2.88,2.88,0,0,0,77.57,92Z"/><path class="cls-1" d="M87.92,90A2.88,2.88,0,1,0,83.84,94L90,100.16a2.87,2.87,0,0,0,4.08,0,2.88,2.88,0,0,0,0-4.08Z"/><path class="cls-1" d="M94.83,80.46H86.18a2.89,2.89,0,1,0,0,5.77h8.65a2.89,2.89,0,1,0,0-5.77Z"/><path class="cls-1" d="M54.48,47.27a2.88,2.88,0,0,0,2.89-2.88V35.73a2.89,2.89,0,1,0-5.77,0v8.66A2.88,2.88,0,0,0,54.48,47.27Z"/><path class="cls-1" d="M43.79,49.31a2.85,2.85,0,0,0,2,.85,2.89,2.89,0,0,0,2-4.93l-6.12-6.12a2.89,2.89,0,0,0-4.09,4.08Z"/><path class="cls-1" d="M37.12,58.82h8.66a2.89,2.89,0,0,0,0-5.77H37.12a2.89,2.89,0,1,0,0,5.77Z"/><circle class="cls-2" cx="68.17" cy="68.17" r="67.17"/></g></g></svg>