<svg xmlns="http://www.w3.org/2000/svg" viewBox="0 0 136.33 136.33"><defs><style>.cls-1{fill:#20b4b2;}.cls-2{fill:none;stroke:#20b4b2;stroke-miterlimit:10;stroke-width:2px;}</style></defs><title>Ресурс 3</title><g id="Слой_2" data-name="Слой 2"><g id="Слой_1-2" data-name="Слой 1"><path class="cls-1" d="M93.5,44.4c-2-1-14.12-7.59-20.8-11.79a6.2,6.2,0,0,0-9.07,0C57,36.8,44.79,43.35,42.83,44.4H30.64v61.29h75.05V44.4ZM71,34.4v0a3.8,3.8,0,0,1,.82,1.52,1,1,0,0,1,0,.16,3.35,3.35,0,0,1,.09.79,3.76,3.76,0,1,1-7.51,0,3.35,3.35,0,0,1,.09-.79c0-.05,0-.1,0-.16a3.8,3.8,0,0,1,.82-1.52v0a3.71,3.71,0,0,1,5.57,0Zm-9,2.19c0,.1,0,.2,0,.3a6.26,6.26,0,1,0,12.51,0c0-.1,0-.2,0-.3,4.5,2.67,10,5.75,13.83,7.81H48.09C51.87,42.34,57.42,39.26,61.92,36.59ZM43.15,46.9h60v6.25h-70V46.9Zm-10,56.29V55.66h70.05v47.53Z"/><circle class="cls-1" cx="59.41" cy="65.66" r="1.25"/><circle class="cls-1" cx="68.17" cy="65.66" r="1.25"/><circle class="cls-1" cx="76.92" cy="65.66" r="1.25"/><circle class="cls-1" cx="85.68" cy="65.66" r="1.25"/><circle class="cls-1" cx="94.43" cy="65.66" r="1.25"/><circle class="cls-1" cx="41.9" cy="75.67" r="1.25"/><circle class="cls-1" cx="50.65" cy="75.67" r="1.25"/><circle class="cls-1" cx="59.41" cy="75.67" r="1.25"/><circle class="cls-1" cx="68.17" cy="75.67" r="1.25"/><circle class="cls-1" cx="76.92" cy="75.67" r="1.25"/><circle class="cls-1" cx="85.68" cy="75.67" r="1.25"/><circle class="cls-1" cx="94.43" cy="75.67" r="1.25"/><circle class="cls-1" cx="41.9" cy="84.43" r="1.25"/><circle class="cls-1" cx="50.65" cy="84.43" r="1.25"/><circle class="cls-1" cx="59.41" cy="84.43" r="1.25"/><circle class="cls-1" cx="68.17" cy="84.43" r="1.25"/><circle class="cls-1" cx="76.92" cy="84.43" r="1.25"/><circle class="cls-1" cx="85.68" cy="84.43" r="1.25"/><circle class="cls-1" cx="94.43" cy="84.43" r="1.25"/><circle class="cls-1" cx="41.9" cy="94.43" r="1.25"/><circle class="cls-1" cx="50.65" cy="94.43" r="1.25"/><circle class="cls-1" cx="59.41" cy="94.43" r="1.25"/><circle class="cls-1" cx="68.17" cy="94.43" r="1.25"/><circle class="cls-1" cx="76.92" cy="94.43" r="1.25"/><circle class="cls-2" cx="68.17" cy="68.17" r="67.17"/></g></g></svg>