<svg xmlns="http://www.w3.org/2000/svg" viewBox="0 0 136.33 136.33"><defs><style>.cls-1{fill:#20b4b2}</style></defs><g id="Слой_2" data-name="Слой 2"><g id="Слой_1-2" data-name="Слой 1"><path class="cls-1" d="M93.5 44.4c-2-1-14.12-7.59-20.8-11.79a6.2 6.2 0 0 0-9.07 0C57 36.8 44.79 43.35 42.83 44.4H30.64v61.29h75.05V44.4zM71 34.4a3.8 3.8 0 0 1 .82 1.52 1 1 0 0 1 0 .16 3.35 3.35 0 0 1 .09.79 3.76 3.76 0 1 1-7.51 0 3.35 3.35 0 0 1 .09-.79v-.16a3.8 3.8 0 0 1 .82-1.52 3.71 3.71 0 0 1 5.57 0zm-9 2.19v.3a6.26 6.26 0 1 0 12.51 0v-.3c4.5 2.67 10 5.75 13.83 7.81H48.09c3.78-2.06 9.33-5.14 13.83-7.81zM43.15 46.9h60v6.25h-70V46.9zm-10 56.29V55.66h70.05v47.53z"/><circle class="cls-1" cx="59.41" cy="65.66" r="1.25"/><circle class="cls-1" cx="68.17" cy="65.66" r="1.25"/><circle class="cls-1" cx="76.92" cy="65.66" r="1.25"/><circle class="cls-1" cx="85.68" cy="65.66" r="1.25"/><circle class="cls-1" cx="94.43" cy="65.66" r="1.25"/><circle class="cls-1" cx="41.9" cy="75.67" r="1.25"/><circle class="cls-1" cx="50.65" cy="75.67" r="1.25"/><circle class="cls-1" cx="59.41" cy="75.67" r="1.25"/><circle class="cls-1" cx="68.17" cy="75.67" r="1.25"/><circle class="cls-1" cx="76.92" cy="75.67" r="1.25"/><circle class="cls-1" cx="85.68" cy="75.67" r="1.25"/><circle class="cls-1" cx="94.43" cy="75.67" r="1.25"/><circle class="cls-1" cx="41.9" cy="84.43" r="1.25"/><circle class="cls-1" cx="50.65" cy="84.43" r="1.25"/><circle class="cls-1" cx="59.41" cy="84.43" r="1.25"/><circle class="cls-1" cx="68.17" cy="84.43" r="1.25"/><circle class="cls-1" cx="76.92" cy="84.43" r="1.25"/><circle class="cls-1" cx="85.68" cy="84.43" r="1.25"/><circle class="cls-1" cx="94.43" cy="84.43" r="1.25"/><circle class="cls-1" cx="41.9" cy="94.43" r="1.25"/><circle class="cls-1" cx="50.65" cy="94.43" r="1.25"/><circle class="cls-1" cx="59.41" cy="94.43" r="1.25"/><circle class="cls-1" cx="68.17" cy="94.43" r="1.25"/><circle class="cls-1" cx="76.92" cy="94.43" r="1.25"/><circle cx="68.17" cy="68.17" r="67.17" fill="none" stroke="#20b4b2" stroke-miterlimit="10" stroke-width="2"/></g></g></svg>