<svg version="1.1" id="Слой_1" xmlns="http://www.w3.org/2000/svg" x="0" y="0" viewBox="0 0 117.9 54.6" xml:space="preserve"><style>.st1{fill:#d9d9d9}</style><path d="M14.1 35.6L3 22.9v12.7H0V0h3v22l11-11.4h4L6.3 22.4 18 35.6h-3.9zm22.8 0v-1.8c-1.7 1.1-4.6 2.4-8.3 2.4-4.9 0-7.5-2.2-7.5-7.2v-.7c0-6.3 4.1-7.6 11.4-7.6h4.2v-2.1c0-4.9-1.1-6-6.6-6-2.4 0-4.5.2-7.3.5v-2.2c2.3-.4 4.3-.9 7.5-.9 8 0 9.4 2.7 9.4 8.6v17h-2.8zM36.8 23h-4.2c-6 0-8.4.8-8.4 5.3v.9c0 3.4 1.9 4.6 5.1 4.6s6.2-1.4 7.6-2.3V23zm18.9 13.2c-1.5 0-3.7-.2-5.9-.6v9.6h-2.9V10.6h2.9v1.8c2.1-1.4 5-2.4 7.8-2.4 6 0 8.9 3.4 8.9 12v1.8c-.2 9.4-4.3 12.4-10.8 12.4zM63.3 22c0-7-1.8-9.3-6.3-9.3-2.4 0-4.6.8-7.3 2.1V33c2.4.4 4.4.6 5.9.6 4.9 0 7.6-2 7.6-9.8V22zm18.2 14.2c-1.5 0-3.7-.2-5.9-.6v9.6h-2.9V10.6h2.9v1.8c2.1-1.4 5-2.4 7.8-2.4 6 0 8.9 3.4 8.9 12v1.8c-.2 9.4-4.3 12.4-10.8 12.4zM89.1 22c0-7-1.8-9.3-6.3-9.3-2.4 0-4.6.8-7.3 2.1V33c2.4.4 4.4.6 5.9.6 4.9 0 7.6-2 7.6-9.8V22zm11.1 2.1v.6c0 5.7 1.6 8.9 8.4 8.9 2.8 0 6.3-.3 8.6-.7v2.4c-1.8.4-4.9.9-8.6.9-8.5 0-11.3-3.8-11.3-12.1v-1.7c0-7.8 3.2-12.3 10.4-12.3s10.4 4.4 10.4 12.7v1.5h-17.9zm14.6-2.9c0-4.5-1.2-8.6-7.3-8.6s-7.3 4.3-7.3 8.6v.4h14.6v-.4z" fill="#364048"/><path class="st1" d="M37.4 53H50l.8.6H37.4v1h-.5v-1h-.7c-.9 0-1.5-.1-1.5-1.2 0-.3 0-.7.1-.9h.4v.8c0 .6.3.7 1 .7h.7v-1.5h.5V53zm4.5-4.3c0 1.4-.8 2-2.3 2h-.5c-1.5 0-2.3-.6-2.3-2s.8-2 2.3-2h.5c1.5-.1 2.3.6 2.3 2zm-2.8-1.5c-1.3 0-1.8.4-1.8 1.4 0 1 .5 1.4 1.8 1.4h.5c1.3 0 1.8-.4 1.8-1.4s-.5-1.4-1.8-1.4h-.5zm-1.3-2.4h4v.6h-4.9v-.6h.4c-.4-.6-.5-1.3-.5-1.8h.5c0 .5.2 1.3.5 1.8z"/><path class="st1" d="M50.9 53.6c-1.2 0-1.7-.6-1.7-2v-.5c0-1.4.6-2 1.7-2 .5 0 .9.1 1.2.1v.4c-.5-.1-.9-.1-1.1-.1-.8 0-1.3.3-1.3 1.6v.5c0 1.3.4 1.6 1.3 1.6.2 0 .6 0 1.1-.1v.4c-.3 0-.7.1-1.2.1zm2.7-3.7v3.6h-.5v-4.3h.5v.4c.5-.4 1.1-.5 1.6-.5v.5c-.5-.1-1.1 0-1.6.3zm2.7 1.6c0 1.1.3 1.6 1.5 1.6.5 0 1.1-.1 1.5-.1v.4c-.3.1-.9.2-1.5.2-1.5 0-2-.7-2-2.1v-.3c0-1.4.6-2.1 1.8-2.1 1.3 0 1.8.8 1.8 2.2v.3h-3.1zm2.5-.5c0-.8-.2-1.5-1.3-1.5s-1.3.7-1.3 1.5v.1l2.6-.1zm4.2 2.5v-.3c-.3.2-.8.4-1.4.4-.8 0-1.3-.4-1.3-1.2v-.1c0-1.1.7-1.3 2-1.3h.7v-.4c0-.8-.2-1-1.2-1-.4 0-.8 0-1.3.1v-.4c.4-.1.8-.2 1.3-.2 1.4 0 1.6.5 1.6 1.5v3H63zm-.1-2.2h-.7c-1 0-1.5.1-1.5.9v.2c0 .6.3.8.9.8.5 0 1.1-.2 1.3-.4v-1.5zm3.3 2.3c-.7 0-1-.3-1-1.1v-2.9h-.9v-.4h.9V48h.5v1.2h1.2v.4h-1.2v2.9c0 .6.1.7.5.7h.7v.4c-.1-.1-.5 0-.7 0zm1.6-5.3v-1h.5v1h-.5zm0 5.2v-4.3h.5v4.3h-.5zm3.6 0h-.7l-1.5-4.3h.6l1 2.9c.1.4.2.7.3 1 .1-.3.2-.7.3-1l1-2.9h.6l-1.6 4.3zm2.7-2c0 1.1.3 1.6 1.5 1.6.5 0 1.1-.1 1.5-.1v.4c-.3.1-.9.2-1.5.2-1.5 0-2-.7-2-2.1v-.3c0-1.4.6-2.1 1.8-2.1 1.3 0 1.8.8 1.8 2.2v.3h-3.1zm2.5-.5c0-.8-.2-1.5-1.3-1.5S74 50.2 74 51v.1l2.6-.1zm2.8 2.6c-.6 0-1.2-.1-1.4-.2V53c.3 0 .9.1 1.4.1.8 0 1.1-.3 1.1-.7 0-.4-.2-.6-1-.9l-.3-.1c-.8-.4-1.2-.7-1.2-1.3 0-.7.5-1.1 1.6-1.1.5 0 1.1.1 1.3.2v.4c-.4-.1-.9-.1-1.2-.1-.7 0-1 .1-1 .6 0 .4.2.6.9.9l.3.1c1 .4 1.3.7 1.3 1.3-.2.6-.6 1.2-1.8 1.2z"/></svg>