<svg xmlns="http://www.w3.org/2000/svg" viewBox="0 0 136.33 136.33"><defs><style>.cls-1{fill:#20b4b2;}.cls-2{fill:none;stroke:#20b4b2;stroke-miterlimit:10;stroke-width:2px;}</style></defs>
<path class="cls-1" d="M67.87,71.36h.54a15.73,15.73,0,0,0,12-5.2c6.56-7.4,5.47-20.09,5.35-21.3-.43-9.09-4.72-13.44-8.27-15.47A19.06,19.06,0,0,0,68.34,27h-.29a19.06,19.06,0,0,0-9.17,2.33c-3.58,2-8,6.38-8.37,15.54-.12,1.21-1.22,13.9,5.35,21.3A15.66,15.66,0,0,0,67.87,71.36ZM55.06,45.29s0-.1,0-.14c.56-12.23,9.24-13.54,13-13.54h.2c4.61.1,12.43,2,13,13.54a.32.32,0,0,0,0,.14c0,.12,1.21,11.71-4.21,17.82-2.15,2.42-5,3.61-8.79,3.65h-.17c-3.75,0-6.63-1.23-8.76-3.65C53.88,57,55,45.39,55.06,45.29Z"/><path class="cls-1" d="M103.19,92.41v0c0-.14,0-.28,0-.43-.1-3.38-.33-11.27-7.73-13.8l-.17,0a49.27,49.27,0,0,1-14.15-6.44,2.3,2.3,0,1,0-2.65,3.76A53.11,53.11,0,0,0,94,82.52c4,1.41,4.42,5.66,4.54,9.55a2.82,2.82,0,0,0,0,.42,31.93,31.93,0,0,1-.36,5.27c-2.76,1.57-13.59,7-30.07,7s-27.3-5.44-30.08-7a30,30,0,0,1-.36-5.27c0-.14,0-.28,0-.43.12-3.89.56-8.14,4.54-9.55a53.81,53.81,0,0,0,15.57-7.11,2.3,2.3,0,1,0-2.65-3.77,48.79,48.79,0,0,1-14.15,6.44l-.17.06c-7.4,2.54-7.63,10.43-7.73,13.79a3,3,0,0,1,0,.43v0c0,.89,0,5.44.87,7.73a2.27,2.27,0,0,0,.89,1.07c.51.34,12.77,8.15,33.29,8.15s32.78-7.83,33.29-8.15a2.32,2.32,0,0,0,.89-1.07C103.22,97.85,103.2,93.29,103.19,92.41Z"/><circle class="cls-2" cx="68.17" cy="68.17" r="67.17"/>
</svg>